<?xml version="1.0" encoding="utf-8"?>
<!-- Generator: Adobe Illustrator 27.5.0, SVG Export Plug-In . SVG Version: 6.00 Build 0)  -->
<svg version="1.1" xmlns="http://www.w3.org/2000/svg" xmlns:xlink="http://www.w3.org/1999/xlink" x="0px" y="0px"
	 viewBox="0 0 700 500" style="enable-background:new 0 0 700 500;" xml:space="preserve">
<g id="BACKGROUND">
	<rect style="fill:#FAE3DB;" width="700" height="500"/>
</g>
<g id="OBJECTS">
	<linearGradient id="SVGID_1_" gradientUnits="userSpaceOnUse" x1="394.1826" y1="562.2443" x2="299.6342" y2="283.7105">
		<stop  offset="0.0104" style="stop-color:#FFCABD;stop-opacity:0"/>
		<stop  offset="1" style="stop-color:#FFCABD"/>
	</linearGradient>
	<rect y="364.17" style="fill:url(#SVGID_1_);" width="700" height="135.83"/>
	<g>
		<ellipse style="opacity:0.51;fill:#FAE3DB;" cx="130.492" cy="444.609" rx="76.003" ry="16.178"/>
		<g>
			<defs>
				<rect id="SVGID_00000120551972370209135040000010966306935723816620_" y="148.021" width="255.83" height="323.234"/>
			</defs>
			<clipPath id="SVGID_00000034082201428055445930000011047317149824512183_">
				<use xlink:href="#SVGID_00000120551972370209135040000010966306935723816620_"  style="overflow:visible;"/>
			</clipPath>
			<g style="clip-path:url(#SVGID_00000034082201428055445930000011047317149824512183_);">
				<g>
					<rect x="-1.681" y="314.19" style="fill:#AA6EE7;" width="9.863" height="148.771"/>
					<polygon style="fill:#351E3B;" points="8.182,314.19 8.182,318.448 -1.681,330.191 -1.681,314.19 					"/>
				</g>
				<g>
					<g>
						<rect x="98.47" y="248.974" style="fill:#AA6EE7;" width="9.427" height="128.139"/>
						<polygon style="fill:#351E3B;" points="107.897,248.974 107.897,252.641 98.47,262.756 98.47,248.974 						"/>
					</g>
					<g>
						<rect x="167.176" y="253.178" style="fill:#AA6EE7;" width="9.863" height="139.529"/>
						<polygon style="fill:#351E3B;" points="177.039,253.178 177.039,257.172 167.176,268.185 167.176,253.178 						"/>
					</g>
					<g>
						<path style="fill:#FF8B9B;" d="M206.363,189.98c1.349-2.663,2.126-5.665,2.126-8.854c0-10.848-8.794-19.643-19.643-19.643
							c-10.848,0-19.643,8.794-19.643,19.643c0,0.723,0.045,1.436,0.121,2.139c0.05,0.761,0.225,2.496,0.805,4.917
							c-0.151,2.959-0.464,5.91-0.96,8.831c-0.04,0.237-0.073,0.508,0.081,0.692c0.089,0.107,0.225,0.161,0.356,0.209
							c1.44,0.53,2.976,0.781,4.51,0.771c3.301,6.507,6.848,10.619,10.326,10.54c1.128-0.026,3.141-0.697,5.495-1.873l0.035,0.08
							l3.001,7.038l1.335,3.126c0,0,10.308,5.548,19.727-12.772L206.363,189.98z"/>
						<g>
							<path style="fill:#351E3B;" d="M175.883,188.365c0.341,0.82,0.083,1.706-0.575,1.98c-0.658,0.273-1.468-0.169-1.808-0.989
								c-0.341-0.82-0.083-1.706,0.575-1.98C174.732,187.102,175.542,187.545,175.883,188.365z"/>
							
								<path style="fill:none;stroke:#351E3B;stroke-width:0.5175;stroke-linecap:round;stroke-linejoin:round;stroke-miterlimit:10;" d="
								M175.005,200.428c1.346-0.51,2.496-1.522,3.173-2.792"/>
							<path style="fill:#492A51;" d="M171.842,184.997c-0.024,0.233,0.057,0.489,0.252,0.617c0.088,0.058,0.192,0.086,0.295,0.108
								c0.924,0.201,1.93-0.015,2.69-0.576c1.006-0.743,0.991-2.529-0.517-2.51C173.471,182.649,171.956,183.891,171.842,184.997z"
								/>
						</g>
						<path style="fill:#492A51;" d="M187.041,152.928c-3.14,0.454-5.131,0.527-8.082,1.691c-3.416,1.348-6.409,3.589-9.145,6.038
							c-3.645,3.262-7.011,7.103-8.43,11.785c-0.354,1.17-0.465,2.689,0.551,3.368c0.949,0.634,2.303,0.105,3.325,0.611
							c-1.431,1.99-2.666,3.993-3.084,6.409c-0.256,1.478-0.255,3.149,0.712,4.296c1.046,1.241,2.958,1.454,4.48,0.891
							c1.522-0.563,2.725-1.747,3.79-2.972c2.79-3.208,4.988-6.93,6.452-10.922c0.089,0.302,0.117,0.711,0.206,1.013
							c0.242,0.818,0.487,1.643,0.896,2.391c0.409,0.748,1.002,1.424,1.776,1.781c1.469,0.677,3.282,0.035,4.408-1.126
							c1.126-1.162,1.443-2.735,1.924-4.28c0.044,1.542,0.237,3.748,1.189,5.461c0.661,1.189,1.268,1.03,2.606,1.255
							c1.26,0.211,2.546-0.39,3.467-1.275c0.921-0.885,1.542-2.029,2.148-3.153c0.044,1.648,0.236,3.624,1.083,5.038
							c0.847,1.414,2.544,2.44,4.141,2.029c0.777-0.2,1.434-0.702,2.069-1.193c-0.725,2.028-4.319,5.191-3.864,6.503
							c0.595,1.718,8.918,6.738,9.623,6.65c1.097-0.137,3.704-4.254,4.404-5.109c4.521-5.52,4.055-14.818,1.643-21.533
							c-1.275-3.551-3.577-6.775-6.705-8.884c-3.128-2.109-7.099-3.034-10.785-2.229c-0.592-1.477-1.647-2.439-3.071-3.151
							c-1.424-0.712-2.998-1.057-4.56-1.362C189.726,152.857,187.526,152.858,187.041,152.928z"/>
						<path style="fill:#FF8B9B;" d="M194.26,176.08c1.421-1.168,3.398-1.715,5.166-1.21c2.684,0.766,4.261,3.739,4.267,6.53
							c0.004,2.002-0.669,4.029-2.012,5.514c-1.343,1.484-3.374,2.37-5.366,2.17c-0.693-0.07-1.392-0.276-1.927-0.72
							c-0.84-0.697-1.137-1.836-1.388-2.898c-0.245-1.037-0.464-2.084-0.735-3.114c-0.168-0.639-0.551-1.332-0.548-2.001
							C191.723,178.824,193.14,176.99,194.26,176.08z"/>
						<path style="fill:#492A51;" d="M192.919,184.679c0.19,0.119,0.413,0.237,0.628,0.172c0.345-0.105,0.392-0.568,0.362-0.927
							c-0.18-2.155-0.725-4.263-1.368-6.327c-0.234-0.752-0.535-1.568-1.221-1.955c-0.437-0.246-0.96-0.274-1.461-0.286
							c-0.347-0.008-0.714-0.006-1.01,0.174c-1.388,0.842-0.975,3.853-0.159,4.957C189.861,182.074,191.238,183.624,192.919,184.679
							z"/>
						
							<path style="fill:none;stroke:#351E3B;stroke-width:0.6621;stroke-linecap:round;stroke-linejoin:round;stroke-miterlimit:10;" d="
							M197.239,183.885c-0.369-1.947,0.254-4.056,1.622-5.49"/>
						<path style="fill:#351E3B;" d="M198.706,200.633c-1.17,4.968-3.084,9.511-5.734,13.838l-3.001-7.038
							C193.687,205.083,196.16,203.427,198.706,200.633z"/>
					</g>
					<g>
						<g>
							<path style="fill:#FF8B9B;" d="M88.082,457.446c-0.528,1.056-47.837-1.325-47.837-2.908c0-1.584,27.748-15.856,27.748-15.856
								l0.145-3.219l0.383-8.404l19.82,1.842c0,0-0.393,5.165-0.724,8.652c-0.124,1.439-0.248,2.598-0.331,2.981
								C87.016,441.859,88.61,456.39,88.082,457.446z"/>
							<path style="fill:#FFFFFF;" d="M88.082,457.446c-0.528,1.056-47.837-1.325-47.837-2.908c0-1.584,27.748-15.856,27.748-15.856
								l0.145-3.219c0.238-0.197,0.486-0.383,0.735-0.559c0.342-0.248,0.714-0.476,1.138-0.497c0.818-0.041,1.428,0.704,1.853,1.408
								c0.642,1.077,1.17,2.205,1.594,3.385c4.73,0.062,9.574-0.445,14.159-1.646c-0.124,1.439-0.248,2.598-0.331,2.981
								C87.016,441.859,88.61,456.39,88.082,457.446z"/>
						</g>
						<g>
							<path style="fill:#FF8B9B;" d="M159.862,418.088c0.166,1.093-37.33,24.793-38.184,23.581
								c-0.854-1.212,12.685-27.106,12.685-27.106l-1.626-2.542l-4.241-6.639l16.164-9.282c0,0,2.485,4.165,4.113,7.014
								c0.681,1.168,1.211,2.122,1.355,2.46C150.637,406.733,159.696,416.996,159.862,418.088z"/>
							<path style="fill:#FFFFFF;" d="M159.862,418.088c0.166,1.093-37.33,24.793-38.184,23.581
								c-0.854-1.212,11.984-26.637,11.984-26.637l-0.925-3.011c0.076-0.279,0.166-0.556,0.261-0.824
								c0.127-0.374,0.29-0.75,0.603-0.994c0.604-0.473,1.473-0.232,2.177,0.078c1.072,0.478,2.085,1.056,3.046,1.731
								c3.654-2.504,7.088-5.505,9.949-8.898c0.681,1.168,1.211,2.122,1.355,2.46C150.637,406.733,159.696,416.996,159.862,418.088z
								"/>
						</g>
						<g>
							<polygon style="fill:#7581FF;" points="152.287,397.723 125.078,410.94 107.824,370.896 102.877,359.408 137.849,359.646 
								137.891,359.646 142.248,359.677 142.32,359.946 142.652,361.198 							"/>
							<polygon style="fill:#351E3B;" points="142.652,361.198 107.824,370.896 102.877,359.408 137.849,359.646 137.891,359.646 
								142.32,359.946 							"/>
						</g>
						<path style="fill:#7581FF;" d="M175.722,295.547c0,0-86.675-5.285-90.903,23.254c0,0-23.254,5.285-23.606,34.529
							c-0.352,29.244,2.114,77.161,2.114,77.161l32.415,4.228l4.933-71.876c0,0,55.581,2.907,80.685-8.104
							c24.387-10.696,29.596-27.746,33.824-36.555L175.722,295.547z"/>
						<g>
							
								<path style="fill:none;stroke:#351E3B;stroke-width:0.5175;stroke-linecap:round;stroke-linejoin:round;stroke-miterlimit:10;" d="
								M88.907,433.409c0.921-22.868,2.225-45.72,3.912-68.544c0.153-2.071,0.338-4.233,1.435-5.996
								c1.098-1.764,2.974-2.895,4.886-3.71c5.813-2.478,12.314-2.573,18.618-3.007c11.26-0.777,22.398-2.752,33.511-4.724
								c5.935-1.053,11.902-2.115,17.578-4.141c13.198-4.712,24.398-14.773,30.493-27.391"/>
							
								<path style="fill:none;stroke:#351E3B;stroke-width:0.5175;stroke-linecap:round;stroke-linejoin:round;stroke-miterlimit:10;" d="
								M185.151,309.162c-4.333,7.998-5.22,17.79-2.396,26.437"/>
						</g>
						
							<path style="fill:none;stroke:#351E3B;stroke-width:0.5175;stroke-linecap:round;stroke-linejoin:round;stroke-miterlimit:10;" d="
							M84.819,318.801c0,0,62.011-9.865,66.239-11.627c4.228-1.762,10.57-7.399,10.57-7.399"/>
					</g>
					<g>
						<rect x="76.009" y="314.19" style="fill:#AA6EE7;" width="9.863" height="148.771"/>
						<polygon style="fill:#351E3B;" points="85.872,314.19 85.872,318.448 76.009,330.191 76.009,314.19 						"/>
					</g>
					<g>
						<polygon style="fill:#AA6EE7;" points="191.697,244.758 191.697,244.806 191.21,254.679 101.232,317.449 100.694,317.826 
							-17.468,317.826 -17.468,307.228 102.452,244.516 152.434,244.651 						"/>
						<polygon style="opacity:0.45;fill:#AA6EE7;" points="-18.064,307.374 100.52,307.374 191.917,244.653 102.489,244.468 						
							"/>
						<polygon style="opacity:0.31;fill:#AA6EE7;" points="191.914,244.651 191.21,254.679 101.232,317.449 100.518,307.373 
							191.697,244.806 						"/>
					</g>
					<g>
						<g>
							<path style="fill:#351E3B;" d="M37.523,294.423c0.264,0,57.828-28.965,57.828-28.965l20.038,6.517L57.648,302.63
								L37.523,294.423z"/>
						</g>
						<g>
							<g>
								<path style="fill:#492A51;" d="M57.824,301.783c-0.018,0-0.036-0.004-0.053-0.01l-18.28-7.563
									c-0.056-0.023-0.086-0.078-0.073-0.133c0.01-0.043,0.046-0.078,0.092-0.089c0.942-0.358,55.056-27.712,55.603-27.989
									c0.033-0.017,0.071-0.02,0.105-0.008l18.632,6.034c0.048,0.016,0.081,0.055,0.086,0.101c0.005,0.046-0.021,0.09-0.064,0.113
									l-55.983,29.528C57.868,301.777,57.846,301.783,57.824,301.783z M39.833,294.091l17.984,7.44l55.682-29.369l-18.312-5.931
									C75.521,276.173,43.222,292.484,39.833,294.091z"/>
							</g>
							<g>
								<path style="fill:#492A51;" d="M42.928,295.587c-0.045,0-0.09-0.022-0.113-0.061c-0.034-0.057-0.012-0.129,0.051-0.161
									l55.938-28.16c0.063-0.031,0.141-0.011,0.175,0.046c0.034,0.057,0.012,0.129-0.051,0.161l-55.938,28.16
									C42.97,295.582,42.949,295.587,42.928,295.587z"/>
							</g>
							<g>
								<path style="fill:#492A51;" d="M46.487,296.875c-0.045,0-0.09-0.022-0.113-0.061c-0.034-0.057-0.012-0.129,0.051-0.161
									l56.027-28.281c0.064-0.032,0.142-0.011,0.176,0.046c0.034,0.057,0.012,0.129-0.05,0.161L46.55,296.86
									C46.529,296.87,46.508,296.875,46.487,296.875z"/>
							</g>
							<g>
								<path style="fill:#492A51;" d="M50.047,298.604c-0.045,0-0.089-0.022-0.112-0.061c-0.035-0.056-0.013-0.128,0.049-0.161
									l56.202-28.763c0.06-0.031,0.141-0.012,0.175,0.046c0.035,0.056,0.013,0.128-0.049,0.161L50.11,298.589
									C50.089,298.599,50.068,298.604,50.047,298.604z"/>
							</g>
							<g>
								<path style="fill:#492A51;" d="M53.957,300.173c-0.045,0-0.089-0.021-0.112-0.06c-0.035-0.056-0.013-0.128,0.049-0.161
									l56.071-29.126c0.062-0.035,0.14-0.013,0.176,0.044c0.035,0.056,0.013,0.128-0.049,0.161l-56.071,29.126
									C54.001,300.169,53.979,300.173,53.957,300.173z"/>
							</g>
						</g>
						<g>
							<path style="fill:#492A51;" d="M61.29,299.858c-0.016,0-0.031-0.003-0.046-0.009l-18.12-7.383
								c-0.063-0.026-0.094-0.099-0.068-0.161c0.026-0.064,0.098-0.092,0.16-0.068l18.12,7.383c0.063,0.026,0.094,0.099,0.068,0.161
								C61.385,299.83,61.339,299.858,61.29,299.858z"/>
							<path style="fill:#492A51;" d="M66.777,296.951c-0.015,0-0.031-0.003-0.046-0.009l-18.153-7.251
								c-0.063-0.026-0.094-0.097-0.069-0.16c0.025-0.063,0.096-0.094,0.16-0.069l18.153,7.251c0.063,0.026,0.094,0.097,0.069,0.16
								C66.872,296.922,66.825,296.951,66.777,296.951z"/>
							<path style="fill:#492A51;" d="M72.263,294.045c-0.015,0-0.03-0.002-0.045-0.009l-18.186-7.119
								c-0.063-0.025-0.095-0.096-0.07-0.16c0.025-0.064,0.096-0.098,0.16-0.069l18.186,7.119c0.063,0.025,0.095,0.096,0.07,0.16
								C72.36,294.016,72.313,294.045,72.263,294.045z"/>
							<path style="fill:#492A51;" d="M77.751,291.138c-0.015,0-0.03-0.002-0.044-0.008l-18.22-6.988
								c-0.064-0.025-0.096-0.096-0.071-0.16c0.023-0.064,0.097-0.098,0.159-0.071l18.22,6.988c0.064,0.025,0.096,0.096,0.071,0.16
								C77.847,291.109,77.8,291.138,77.751,291.138z"/>
							<path style="fill:#492A51;" d="M83.237,288.232c-0.015,0-0.029-0.002-0.044-0.008l-18.253-6.857
								c-0.064-0.024-0.096-0.095-0.072-0.159c0.024-0.064,0.094-0.099,0.159-0.072l18.253,6.857
								c0.064,0.024,0.096,0.095,0.072,0.159C83.335,288.202,83.287,288.232,83.237,288.232z"/>
							<path style="fill:#492A51;" d="M88.724,285.325c-0.014,0-0.028-0.002-0.043-0.008l-18.286-6.724
								c-0.064-0.023-0.097-0.094-0.073-0.158c0.024-0.064,0.094-0.098,0.159-0.073l18.286,6.724
								c0.064,0.023,0.097,0.094,0.074,0.158C88.822,285.295,88.774,285.325,88.724,285.325z"/>
							<path style="fill:#492A51;" d="M94.211,282.418c-0.014,0-0.028-0.002-0.042-0.007L75.85,275.82
								c-0.064-0.024-0.098-0.094-0.074-0.158c0.023-0.064,0.094-0.097,0.158-0.075l18.319,6.592
								c0.064,0.024,0.098,0.094,0.074,0.158C94.309,282.387,94.262,282.418,94.211,282.418z"/>
							<path style="fill:#492A51;" d="M99.698,279.512c-0.014,0-0.027-0.002-0.041-0.007l-18.353-6.462
								c-0.064-0.023-0.098-0.093-0.075-0.157c0.023-0.064,0.093-0.097,0.158-0.076l18.353,6.462
								c0.064,0.023,0.098,0.093,0.075,0.157C99.797,279.481,99.749,279.512,99.698,279.512z"/>
							<path style="fill:#492A51;" d="M105.185,276.606c-0.013,0-0.027-0.002-0.04-0.007l-18.386-6.33
								c-0.064-0.022-0.098-0.092-0.077-0.156c0.023-0.064,0.091-0.1,0.157-0.077l18.386,6.33c0.064,0.022,0.099,0.092,0.077,0.156
								C105.284,276.574,105.236,276.606,105.185,276.606z"/>
							<path style="fill:#492A51;" d="M110.672,273.699c-0.013,0-0.026-0.002-0.039-0.006l-18.419-6.198
								c-0.065-0.022-0.099-0.092-0.078-0.157c0.022-0.065,0.094-0.096,0.156-0.078l18.419,6.198c0.065,0.022,0.1,0.092,0.078,0.157
								C110.771,273.667,110.724,273.699,110.672,273.699z"/>
						</g>
					</g>
					<g>
						<path style="fill:#FF8B9B;" d="M168.279,242.741c0,0-8.06-4.294-10.372-4.955c-2.312-0.661-8.06-2.841-9.711-1.718
							c-1.652,1.123-7.729,7.729-6.54,8.985c1.189,1.255,7.729-3.898,7.729-3.898l12.552,5.021L168.279,242.741z"/>
						<path style="fill:#FF8B9B;" d="M147.812,244.619c0.018,1.263,0.549,2.545,1.546,3.321c0.254,0.198,0.543,0.364,0.862,0.413
							c0.318,0.049,0.669-0.037,0.885-0.276c0.277-0.309,0.267-0.768,0.308-1.181c0.113-1.144,0.73-2.239,0.588-3.38
							c-0.139-1.116-1.294-2.411-2.515-2.217C148.107,241.518,147.796,243.497,147.812,244.619z"/>
						<path style="fill:#FF8B9B;" d="M151.313,244.227c0.018,1.461,0.549,2.946,1.546,3.843c0.254,0.229,0.543,0.422,0.862,0.478
							c0.318,0.056,0.67-0.042,0.885-0.32c0.277-0.357,0.267-0.889,0.308-1.367c0.113-1.324,0.73-2.591,0.588-3.912
							c-0.139-1.292-1.294-2.79-2.515-2.565C151.608,240.639,151.297,242.928,151.313,244.227z"/>
						<path style="fill:#351E3B;" d="M144.959,244.59l19.687-17.11c0,0,2.246-0.198,1.784,1.85l-18.432,17.573l-3.7,1.453
							L144.959,244.59z"/>
						<path style="fill:#FF8B9B;" d="M177.66,258.331c0,0-18.233-6.606-20.48-8.324c-2.246-1.718-10.966-6.474-9.777-8.324
							c1.189-1.85,9.513,0.661,11.099,0.925c1.586,0.264,9.381,0,9.777,0.132c0.396,0.132,15.855,5.153,16.251,5.285
							C184.927,248.158,177.66,258.331,177.66,258.331z"/>
						
							<path style="fill:none;stroke:#351E3B;stroke-width:0.2587;stroke-linecap:round;stroke-linejoin:round;stroke-miterlimit:10;" d="
							M158.898,243.269c0,0-2.51-1.057-5.747-1.718c-3.14-0.641-5.021-1.189-5.681,0c-0.661,1.189,0.462,2.048,1.057,2.51
							c0.594,0.463,5.153,3.171,6.474,4.294c1.321,1.123,3.567,2.378,3.567,2.378"/>
					</g>
					<g>
						<path style="fill:#FFB18A;" d="M194.308,217.596c-0.793,0.437-9.778,26.334-12.684,40.868
							c-2.907,14.534-10.042,30.917-10.042,30.917s-0.793,14.005,8.456,19.819c9.249,5.814,30.653,10.834,35.145,9.777
							c0,0,4.492-16.384,8.192-27.218c3.479-10.187,6.183-20.578,7.719-31.16c1.533-10.563,3.107-21.824-0.32-32.186
							c-2.994-9.054-9.571-17.432-16.74-23.589L194.308,217.596z"/>
						<g>
							<g>
								<path style="fill:#FF8B9B;" d="M180.831,251.857l-16.912,20.876l-57.078,3.964l-6.342,12.156
									c0,0,54.964,11.891,69.498,7.663s35.674-30.389,35.674-30.389L180.831,251.857z"/>
								<path style="fill:#FF8B9B;" d="M100.498,288.853c0,0-5.637,0.44-8.896-0.705c-3.259-1.145-9.555-4.646-11.649-4.646
									c-2.026,0-9.513,2.18-10.834,1.189c-1.316-0.987,1.982-2.775,1.982-2.775s-2.494,0.066-2.708-1.652
									c-0.198-1.586,2.643-2.841,2.643-2.841s-3.832-0.551-2.246-2.312c1.585-1.762,6.32-2.775,12.156-3.567
									c0,0,0.176-2.686,1.85-3.303c1.674-0.617,8.368,0.617,12.948,2.907c4.58,2.29,11.099,5.549,11.099,5.549L100.498,288.853z"
									/>
								
									<path style="fill:none;stroke:#351E3B;stroke-width:0.2587;stroke-linecap:round;stroke-linejoin:round;stroke-miterlimit:10;" d="
									M71.1,281.916c0,0,5.524-2.777,10.557-2.365"/>
								
									<path style="fill:none;stroke:#351E3B;stroke-width:0.2587;stroke-linecap:round;stroke-linejoin:round;stroke-miterlimit:10;" d="
									M71.034,277.424c0,0,4.845-2.356,11.759-1.784"/>
								
									<path style="fill:none;stroke:#351E3B;stroke-width:0.2587;stroke-linecap:round;stroke-linejoin:round;stroke-miterlimit:10;" d="
									M80.767,271.544c0,0,2.995-0.573,5.373,0.088"/>
							</g>
							<g>
								<path style="fill:#FFB18A;" d="M176.867,253.707c0,0,16.912-34.088,33.296-31.182c16.384,2.907,12.684,27.747-3.171,48.887
									L176.867,253.707z"/>
								
									<path style="fill:none;stroke:#351E3B;stroke-width:0.5175;stroke-linecap:round;stroke-linejoin:round;stroke-miterlimit:10;" d="
									M176.867,253.707c0,0,6.254-13.301,13.829-21.404"/>
								
									<path style="fill:none;stroke:#351E3B;stroke-width:0.5175;stroke-linecap:round;stroke-linejoin:round;stroke-miterlimit:10;" d="
									M203.556,269.298c0,0,11.275-10.922,16.736-25.192"/>
							</g>
						</g>
					</g>
					<g>
						
							<path style="fill:none;stroke:#492A51;stroke-width:3.105;stroke-linecap:round;stroke-linejoin:round;stroke-miterlimit:10;" d="
							M246.894,220.147c0,0-27.482,79.628-27.482,91.255c0,11.627,7.956,40.102-5.637,44.394
							c-13.389,4.228-94.778,9.161-94.778,9.161"/>
						<g>
							
								<polyline style="fill:none;stroke:#492A51;stroke-width:0.9803;stroke-linecap:round;stroke-linejoin:round;stroke-miterlimit:10;" points="
								173.255,361.434 173.255,422.433 140.136,446.77 							"/>
							
								<polyline style="fill:none;stroke:#492A51;stroke-width:0.9803;stroke-linecap:round;stroke-linejoin:round;stroke-miterlimit:10;" points="
								205.67,446.138 173.255,422.433 172.903,452.064 							"/>
						</g>
					</g>
					<g>
						<g>
							<polygon style="fill:#492A51;" points="111.27,262.1 131.027,247.794 153.775,248.231 136.235,264.412 							"/>
							
								<line style="fill:none;stroke:#FFF3EA;stroke-width:0.2572;stroke-linecap:round;stroke-linejoin:round;stroke-miterlimit:10;" x1="117.225" y1="262.513" x2="136.153" y2="247.859"/>
						</g>
						
							<path style="fill:none;stroke:#351E3B;stroke-width:0.5144;stroke-linecap:round;stroke-linejoin:round;stroke-miterlimit:10;" d="
							M91.298,240.481c0.151,1.848,0.551,3.721,1.54,5.283c0.989,1.561,2.645,2.772,4.476,2.851c1.831,0.08,3.734-1.185,4.072-3.007
							c0.107-0.578,0.046-1.223-0.321-1.679c-0.636-0.791-1.966-0.661-2.686,0.053c-0.72,0.714-0.938,1.804-0.935,2.824
							c0.007,2.203,0.927,4.402,2.535,5.887c1.608,1.486,3.889,2.215,6.038,1.864c3.349-0.548,5.848-3.433,9.038-4.603
							c3.411-1.252,7.513-0.27,10.01,2.395"/>
						<g>
							<g>
								<polygon style="fill:#492A51;" points="101.568,255.818 91.647,261.635 77.276,261.107 77.276,245.251 89.55,240.231 
									89.55,255.818 								"/>
								<polygon style="fill:#351E3B;" points="89.55,242.218 89.55,244.412 77.276,255.756 77.276,246.027 								"/>
							</g>
							<g>
								<polygon style="fill:#492A51;" points="122.157,227.521 46.337,265.661 42.88,267.4 38.369,266.261 36.089,189.848 
									35.996,186.712 36.007,186.712 41.172,184.828 44.639,183.576 115.349,156.18 120.244,156.675 								"/>
								<polygon style="fill:#351E3B;" points="42.88,267.4 38.369,266.261 36.089,189.848 36.007,186.712 40.903,188.047 								
									"/>
								<polygon style="fill:#FAE3DB;" points="45.222,188.845 46.603,258.527 118.505,224.357 117.228,161.765 								"/>
							</g>
							<g>
								<polygon style="fill:#FFFFFF;" points="51.341,189.318 52.559,249.215 83.896,234.549 83.809,176.281 								"/>
								<polygon style="fill:#FFB18A;" points="54.648,191.079 54.648,200.24 81.285,188.437 81.285,180.157 								"/>
								<polygon style="fill:#7581FF;" points="55.171,202.53 55.171,241.463 66.487,236.355 66.487,197.421 								"/>
								<polygon style="fill:#7581FF;" points="70.143,195.66 70.143,206.934 81.111,201.517 80.937,191.079 								"/>
							</g>
							<g>
								<polygon style="fill:#7581FF;" points="89.141,177.713 89.141,188.987 100.109,183.57 99.934,173.132 								"/>
								<polygon style="fill:#FFB18A;" points="89.663,191.057 89.663,202.332 100.631,196.915 100.457,185.794 								"/>
								<polygon style="fill:#AA6EE7;" points="89.663,205.239 89.663,216.514 100.631,211.096 100.457,199.976 								"/>
								<polygon style="fill:#FFA7DA;" points="89.663,219.596 89.663,230.871 100.631,225.454 100.457,214.333 								"/>
							</g>
						</g>
					</g>
				</g>
			</g>
		</g>
	</g>
	<g>
		<defs>
			
				<rect id="SVGID_00000088124565016732274230000009079031047091472283_" x="305.532" y="155.936" width="394.468" height="330.894"/>
		</defs>
		<clipPath id="SVGID_00000068635302942555698750000012059444325372325515_">
			<use xlink:href="#SVGID_00000088124565016732274230000009079031047091472283_"  style="overflow:visible;"/>
		</clipPath>
		<g style="clip-path:url(#SVGID_00000068635302942555698750000012059444325372325515_);">
			<polygon style="opacity:0.51;fill:#FAE3DB;" points="361.625,406.726 719.297,473.368 816.503,428.398 506.7,379.617 			"/>
			<g>
				<polyline style="fill:#492A51;" points="367.543,301.112 686.258,325.005 686.258,353.591 367.117,324.151 367.117,302.819 				
					"/>
				<g>
					<path style="fill:#FFB18A;" d="M547.648,405.091c-0.677,5.289-3.397,9.387-6.254,9.663c-0.339-0.013-0.677-0.038-1.028-0.063
						c-7.069-0.526-17.22-3.447-17.22-3.447l-4.8-7.996l5.114-11.844c0,0,12.53,1.568,19.441,2.799
						C547.28,394.983,548.199,400.867,547.648,405.091z"/>
					<path style="fill:#FFB18A;" d="M547.727,405.247c-0.666,5.204-3.341,9.236-6.151,9.507c-0.234,0.037-0.481,0.025-0.715,0
						c-0.099-0.012-0.197-0.025-0.296-0.062c-2.885-0.654-4.623-5.413-3.908-10.876c0.616-4.797,2.922-8.595,5.486-9.371
						c0.456-0.148,0.924-0.197,1.381-0.136c0.801,0.099,1.516,0.505,2.12,1.159c0.012,0,0.012,0.012,0.025,0.012
						C547.394,397.331,548.269,401.091,547.727,405.247z"/>
					<path style="opacity:0.4;fill:#FFB18A;" d="M547.727,405.247c-0.666,5.204-3.341,9.236-6.151,9.507
						c-0.234,0.037-0.481,0.025-0.715,0c-0.099-0.012-0.197-0.025-0.296-0.062c-2.885-0.654-4.623-5.413-3.908-10.876
						c0.616-4.797,2.922-8.595,5.486-9.371c0.456-0.148,0.924-0.197,1.381-0.136c0.801,0.099,1.516,0.505,2.12,1.159
						c0.012,0,0.012,0.012,0.025,0.012C547.394,397.331,548.269,401.091,547.727,405.247z"/>
					<path style="fill:#492A51;" d="M544.823,404.708c-0.24,1.872-1.202,3.323-2.213,3.421c-0.084,0.013-0.173,0.009-0.257,0
						c-0.036-0.004-0.071-0.009-0.106-0.022c-1.038-0.235-1.663-1.948-1.406-3.913c0.222-1.726,1.051-3.092,1.974-3.372
						c0.164-0.053,0.333-0.071,0.497-0.049c0.288,0.035,0.546,0.182,0.763,0.417c0.004,0,0.004,0.004,0.009,0.004
						C544.704,401.86,545.019,403.213,544.823,404.708z"/>
					
						<line style="fill:none;stroke:#492A51;stroke-width:1.2533;stroke-linecap:round;stroke-linejoin:round;stroke-miterlimit:10;" x1="543.327" y1="403.937" x2="543.327" y2="429.11"/>
				</g>
				
					<line style="fill:none;stroke:#492A51;stroke-width:1.2533;stroke-linecap:round;stroke-linejoin:round;stroke-miterlimit:10;" x1="384.023" y1="376.364" x2="384.023" y2="401.483"/>
				<g>
					<g>
						<g>
							<path style="fill:#492A51;" d="M376.498,290.847v109.879l-11.167,9.416h-0.012l-18.936-3.162l-0.566-1.003l-0.251-94.193
								l-0.038-11.595l-0.013-2.72l-0.025-7.878c0,0.012,11.48,0.468,20.467,0.825c1.391,0.062,2.72,0.111,3.935,0.16
								c1.191,0.049,2.281,0.099,3.221,0.135C375.195,290.786,376.498,290.847,376.498,290.847z"/>
							<path style="opacity:0.17;fill:#492A51;" d="M376.498,291.241v109.485l-11.167,9.416l0.526-102.272l0.05-8.554l0.012-2.536
								l0.038-6.364c1.391,0.062,2.72,0.111,3.935,0.16c1.191,0.049,2.281,0.099,3.221,0.135L376.498,291.241z"/>
						</g>
						<path style="fill:#351E3B;" d="M376.498,292.361v2.646l-10.578,1.772l-9.851,1.649l-10.54,1.76l-0.013-2.72l-0.025-7.878
							c0,0.012,11.48,0.468,20.467,0.825c1.391,0.062,2.72,0.111,3.935,0.16L376.498,292.361z"/>
					</g>
				</g>
				
					<line style="fill:none;stroke:#351E3B;stroke-width:5.0132;stroke-linecap:round;stroke-linejoin:round;stroke-miterlimit:10;" x1="370.103" y1="397.537" x2="686.258" y2="456.416"/>
				<g>
					<g>
						<g>
							<path style="fill:#492A51;" d="M718.892,316.623v144.374l-14.914,12.371l-0.013,0.012l-26.031-7.428l-0.388-137.043
								l-0.038-13.935c0,0.012,15.315,0.618,27.31,1.091c1.855,0.073,3.622,0.145,5.251,0.206c1.592,0.073,3.046,0.133,4.299,0.182
								C717.15,316.55,718.892,316.623,718.892,316.623z"/>
							<path style="opacity:0.17;fill:#492A51;" d="M718.892,317.144v143.853l-14.914,12.371l0.79-148.942l0.05-8.361
								c1.855,0.073,3.622,0.145,5.251,0.206c1.592,0.073,3.046,0.133,4.299,0.182L718.892,317.144z"/>
						</g>
						<path style="fill:#351E3B;" d="M718.892,318.61v3.478l-14.125,2.339l-27.222,4.483l-0.038-13.935
							c0,0.012,15.315,0.618,27.31,1.091c1.855,0.073,3.622,0.145,5.251,0.206L718.892,318.61z"/>
					</g>
				</g>
				<polygon style="fill:#351E3B;" points="377.138,291.523 377.138,297.163 366.498,299.243 346.206,303.229 346.169,291.423 
					346.156,288.653 356.709,289.631 366.548,290.533 				"/>
				<polygon style="fill:#492A51;" points="344.077,248.206 335.971,253.753 335.971,293.832 646.578,313.912 646.578,261.859 				
					"/>
				<polygon style="fill:#492A51;" points="668.338,185.061 658.958,265.705 344.076,248.209 344.076,208.529 352.185,182.498 				
					"/>
				<path style="fill:#492A51;" d="M785.241,164.575V294.28l-41.071,25.768l-2.444,1.542c0,0-0.376-0.025-1.078-0.075
					c-0.063-0.012-0.138-0.012-0.201-0.025c-11.43-0.852-95.578-7.131-95.578-6.73v-75.938l18.349-45.658v-33.275h96.856
					l1.504,0.276L785.241,164.575z"/>
				<polygon style="fill:#351E3B;" points="785.241,164.575 785.241,294.28 744.17,320.048 740.649,321.515 740.448,321.59 
					740.448,244.787 760.075,194.016 761.776,160.314 				"/>
				<g>
					
						<polyline style="fill:none;stroke:#351E3B;stroke-width:0.8554;stroke-linecap:round;stroke-linejoin:round;stroke-miterlimit:10;" points="
						663.219,193.163 643.592,237.113 644.87,314.759 					"/>
					
						<line style="fill:none;stroke:#351E3B;stroke-width:0.8554;stroke-linecap:round;stroke-linejoin:round;stroke-miterlimit:10;" x1="644.659" y1="304.525" x2="740.657" y2="309.965"/>
					<path style="fill:#351E3B;" d="M651.058,309.645c0,0.972-0.788,1.76-1.76,1.76c-0.972,0-1.76-0.788-1.76-1.76
						c0-0.972,0.788-1.76,1.76-1.76C650.27,307.885,651.058,308.673,651.058,309.645z"/>
					<path style="fill:#351E3B;" d="M734.577,314.925c0,0.972-0.788,1.76-1.76,1.76c-0.972,0-1.76-0.788-1.76-1.76
						c0-0.972,0.788-1.76,1.76-1.76C733.789,313.165,734.577,313.953,734.577,314.925z"/>
				</g>
				<g>
					<g>
						
							<line style="fill:none;stroke:#351E3B;stroke-width:0.8554;stroke-linecap:round;stroke-linejoin:round;stroke-miterlimit:10;" x1="344.504" y1="208.207" x2="654.258" y2="213.647"/>
						<polygon style="fill:#351E3B;" points="643.692,253.009 643.692,259.727 344.076,247.657 344.076,241.278 						"/>
						
							<line style="fill:none;stroke:#351E3B;stroke-width:0.8554;stroke-linecap:round;stroke-linejoin:round;stroke-miterlimit:10;" x1="343.864" y1="237.966" x2="643.698" y2="249.486"/>
					</g>
					<polygon style="fill:none;stroke:#FAE3DB;stroke-width:0.3133;stroke-miterlimit:10;" points="359.384,185.647 
						358.104,192.367 384.183,192.687 385.143,186.234 					"/>
					<polygon style="fill:none;stroke:#FAE3DB;stroke-width:0.3133;stroke-miterlimit:10;" points="389.836,186.34 388.876,192.74 
						398.183,192.927 398.796,186.554 					"/>
					<polygon style="fill:none;stroke:#FAE3DB;stroke-width:0.3133;stroke-miterlimit:10;" points="651.298,196.154 
						625.059,196.154 626.312,189.114 652.552,189.114 					"/>
				</g>
				<path style="fill:#FFFFFF;" d="M538.362,414.483l0.7,0.12C539.062,414.603,538.782,414.653,538.362,414.483z"/>
				<path style="fill:#FFFFFF;" d="M556.982,255.463c0,0-6.89,3.78-12.71,12.14c-1.96,2.82-3.8,6.15-5.21,10.04
					c-2.27,6.25-3.72,15.19-4.63,25.54c-2.49,28.5-0.86,67.65-0.92,90.51c-0.04,16.98,3.33,20.2,4.84,20.79l-97.79-16.22
					l-73.87-12.25c-4.01-5.13-5.24-29.04-5.24-54.16c0-22.93,1.01-46.87,1.82-58.47c1.71-24.32,15.36-26.03,15.36-26.03
					c-0.03-0.03,0.17-0.05,0.57-0.05c5.04-0.08,42.55,1.61,81.83,3.48C507.762,253.003,556.982,255.463,556.982,255.463z"/>
				<path style="opacity:0.51;fill:#FAE3DB;" d="M556.982,255.463c0,0-6.89,3.78-12.71,12.14l-165.07-20.3
					c5.04-0.08,42.55,1.61,81.83,3.48C507.762,253.003,556.982,255.463,556.982,255.463z"/>
				<path style="fill:#FFB18A;" d="M461.032,250.783c-0.75,11.25-9.43,20.59-18.32,27.77c-9.26,7.49-19.74,14.45-24.8,25.24
					c-2.05,4.38-3.09,9.17-5.04,13.6c-4.6,10.41-14.55,18.31-25.76,20.28c-8.87,1.57-18.31-0.65-25.66-5.82
					c0-22.93,1.01-46.87,1.82-58.47c1.71-24.32,15.36-26.03,15.36-26.03C378.232,246.953,418.602,248.763,461.032,250.783z"/>
				<g>
					<polygon style="opacity:0.43;fill:#492A51;" points="761.579,160.164 760.075,192.311 663.178,189.167 663.219,181.194 
						663.219,159.888 760.075,159.888 					"/>
					
						<line style="fill:none;stroke:#351E3B;stroke-width:0.6267;stroke-linecap:round;stroke-linejoin:round;stroke-miterlimit:10;" x1="675.165" y1="159.674" x2="675.165" y2="189.754"/>
					
						<line style="fill:none;stroke:#351E3B;stroke-width:0.6267;stroke-linecap:round;stroke-linejoin:round;stroke-miterlimit:10;" x1="687.484" y1="159.674" x2="687.484" y2="189.754"/>
					
						<line style="fill:none;stroke:#351E3B;stroke-width:0.6267;stroke-linecap:round;stroke-linejoin:round;stroke-miterlimit:10;" x1="687.484" y1="159.674" x2="687.484" y2="189.754"/>
					
						<line style="fill:none;stroke:#351E3B;stroke-width:0.6267;stroke-linecap:round;stroke-linejoin:round;stroke-miterlimit:10;" x1="699.804" y1="159.674" x2="699.804" y2="189.754"/>
					
						<line style="fill:none;stroke:#351E3B;stroke-width:0.6267;stroke-linecap:round;stroke-linejoin:round;stroke-miterlimit:10;" x1="699.804" y1="159.674" x2="699.804" y2="190.394"/>
					
						<line style="fill:none;stroke:#351E3B;stroke-width:0.6267;stroke-linecap:round;stroke-linejoin:round;stroke-miterlimit:10;" x1="712.124" y1="159.674" x2="712.124" y2="189.754"/>
					
						<line style="fill:none;stroke:#351E3B;stroke-width:0.6267;stroke-linecap:round;stroke-linejoin:round;stroke-miterlimit:10;" x1="712.124" y1="159.674" x2="712.124" y2="190.82"/>
					
						<line style="fill:none;stroke:#351E3B;stroke-width:0.6267;stroke-linecap:round;stroke-linejoin:round;stroke-miterlimit:10;" x1="724.444" y1="159.674" x2="724.444" y2="189.754"/>
					
						<line style="fill:none;stroke:#351E3B;stroke-width:0.6267;stroke-linecap:round;stroke-linejoin:round;stroke-miterlimit:10;" x1="724.444" y1="159.674" x2="724.444" y2="191.14"/>
					
						<line style="fill:none;stroke:#351E3B;stroke-width:0.6267;stroke-linecap:round;stroke-linejoin:round;stroke-miterlimit:10;" x1="736.763" y1="159.674" x2="736.763" y2="189.754"/>
					
						<line style="fill:none;stroke:#351E3B;stroke-width:0.6267;stroke-linecap:round;stroke-linejoin:round;stroke-miterlimit:10;" x1="736.763" y1="159.674" x2="736.763" y2="191.567"/>
					
						<line style="fill:none;stroke:#351E3B;stroke-width:0.6267;stroke-linecap:round;stroke-linejoin:round;stroke-miterlimit:10;" x1="749.083" y1="159.674" x2="749.19" y2="192.207"/>
					
						<line style="fill:none;stroke:#351E3B;stroke-width:0.6267;stroke-linecap:round;stroke-linejoin:round;stroke-miterlimit:10;" x1="663.325" y1="184.527" x2="760.39" y2="187.194"/>
					<path style="fill:#FFB18A;" d="M671.965,166.874c0,1.679-1.361,3.04-3.04,3.04c-1.679,0-3.04-1.361-3.04-3.04
						c0-1.679,1.361-3.04,3.04-3.04C670.604,163.834,671.965,165.195,671.965,166.874z"/>
					<path style="fill:#7581FF;" d="M683.805,166.874c0,1.679-1.361,3.04-3.04,3.04c-1.679,0-3.04-1.361-3.04-3.04
						c0-1.679,1.361-3.04,3.04-3.04C682.443,163.834,683.805,165.195,683.805,166.874z"/>
					<path style="fill:#FF8B9B;" d="M696.284,166.874c0,1.679-1.361,3.04-3.04,3.04s-3.04-1.361-3.04-3.04
						c0-1.679,1.361-3.04,3.04-3.04S696.284,165.195,696.284,166.874z"/>
					<path style="fill:#351E3B;" d="M709.191,166.874c0,1.679-1.361,3.04-3.04,3.04s-3.04-1.361-3.04-3.04
						c0-1.679,1.361-3.04,3.04-3.04S709.191,165.195,709.191,166.874z"/>
					<path style="fill:#FFB18A;" d="M721.35,166.874c0,1.679-1.361,3.04-3.04,3.04c-1.679,0-3.04-1.361-3.04-3.04
						c0-1.679,1.361-3.04,3.04-3.04C719.99,163.834,721.35,165.195,721.35,166.874z"/>
					<path style="fill:#7581FF;" d="M733.19,166.874c0,1.679-1.361,3.04-3.04,3.04s-3.04-1.361-3.04-3.04
						c0-1.679,1.361-3.04,3.04-3.04S733.19,165.195,733.19,166.874z"/>
					<path style="fill:#FF8B9B;" d="M745.67,166.874c0,1.679-1.361,3.04-3.04,3.04c-1.679,0-3.04-1.361-3.04-3.04
						c0-1.679,1.361-3.04,3.04-3.04C744.309,163.834,745.67,165.195,745.67,166.874z"/>
					<path style="fill:#351E3B;" d="M757.723,166.874c0,1.679-1.361,3.04-3.04,3.04s-3.04-1.361-3.04-3.04
						c0-1.679,1.361-3.04,3.04-3.04S757.723,165.195,757.723,166.874z"/>
				</g>
				<path style="fill:#FFA7DA;" d="M538.352,414.483l-97.79-16.22c3.05-7.28,8.68-13.49,15.73-17.07
					c4.99-2.54,10.55-3.78,15.56-6.29c7.18-3.6,13.01-9.82,16.12-17.23c2.72-6.45,3.39-13.57,5.56-20.22
					c2.82-8.62,8.41-16.18,15.5-21.77c5.56-4.38,16-10.87,25.4-12.5c-2.49,28.5-0.86,67.65-0.92,90.51
					C533.472,410.673,536.842,413.893,538.352,414.483z"/>
				<path style="fill:#FFA7DA;" d="M539.062,414.603c0,0-0.28,0.05-0.7-0.12L539.062,414.603z"/>
				<path style="fill:#7581FF;" d="M444.398,308.273c4.458,4.245,10.788,6.138,16.944,6.151c8.336,0.017,16.719-3.34,22.401-9.439
					c5.682-6.1,8.445-14.928,6.802-23.1c-3.895-19.362-26.598-25.263-42.551-16.725
					C433.954,272.674,433.628,298.021,444.398,308.273z"/>
			</g>
		</g>
	</g>
	<g>
		<ellipse style="opacity:0.51;fill:#FAE3DB;" cx="314.873" cy="442.559" rx="74.866" ry="13.88"/>
		<g>
			<g>
				<path style="fill:#FF8B9B;" d="M265.772,441.529c-1.068,2.13,31.648-3.147,31.648-3.147l2.403-11.431l3.131-14.84l-20.889-4.869
					l-2.049,10.729l-1.468,7.677C278.549,425.649,266.838,439.412,265.772,441.529z"/>
				<path style="fill:#FFFFFF;" d="M265.772,441.529c-1.068,2.13,31.648-3.147,31.648-3.147l2.403-11.431
					c-1.391-0.893-2.857-1.665-4.432-2.146c-1.824-0.544-3.759-0.662-5.643-0.357c-0.676-1.959-1.334-3.577-2.861-4.972
					c-1.529-1.383-3.657-2.213-5.69-1.852c-0.415,0.078-0.799,0.188-1.181,0.347l-1.468,7.677
					C278.549,425.649,266.838,439.412,265.772,441.529z"/>
			</g>
			<g>
				<path style="fill:#FF8B9B;" d="M368.075,448.053c0.624,2.299-30.393-9.369-30.393-9.369l-0.086-11.68l-0.122-15.166l21.44-0.624
					l-0.122,10.922l-0.086,7.815C358.706,429.952,367.451,445.766,368.075,448.053z"/>
				<path style="fill:#FFFFFF;" d="M368.075,448.053c0.624,2.299-30.393-9.369-30.393-9.369l-0.086-11.68
					c1.541-0.599,3.131-1.064,4.77-1.223c1.896-0.171,3.816,0.098,5.602,0.771c1.052-1.786,2.018-3.241,3.792-4.305
					c1.773-1.052,4.024-1.443,5.944-0.685c0.391,0.159,0.746,0.342,1.089,0.575l-0.086,7.815
					C358.706,429.952,367.451,445.766,368.075,448.053z"/>
			</g>
			<path style="fill:#FFA7DA;" d="M358.28,163.992c0,0,13.338,17.49,17.086,31.855c3.747,14.365,2.082,26.855-0.208,30.603
				c-2.29,3.747-16.238,7.286-16.238,7.286L358.28,163.992z"/>
			<path style="fill:#FFA7DA;" d="M362.512,414.744h-28.73l-3.021-123.346l-25.403,120.545l-27.054-0.942h-0.159
				c0,0,4.623-64.92,6.8-100.646c0.306-5.161,0.575-9.699,0.758-13.331c1.223-23.556,9.014-59.832,11.423-79.536
				c0-0.012,0.012-0.012,0.012-0.024c0.122-0.954,0.22-1.871,0.318-2.752c0.342-3.315,0.477-6.017,0.342-7.938
				c-0.905-12.805-9.075-42.159-9.075-42.159c3.058-4.244,8.097-8.317,12.793-11.546c2.152-1.492,4.244-2.801,6.017-3.865
				c3.168-1.884,5.381-3.009,5.381-3.009l23.899,4.366c0,0,3.596,0.978,8.513,3.645c2.153,1.174,4.586,2.678,7.069,4.574
				c1.957,1.48,3.951,3.217,5.883,5.21c3.302,3.412,2.947,18.224,2.935,33.646c-0.012,5.528,0.037,11.13,0.306,16.316
				c1.26,24.119,0,48.715,0,48.715L362.512,414.744z"/>
			<path style="fill:#492A51;" d="M324.866,98.188c-4.801,1.715-7.13,1.094-10.954,7.687c-1.057,1.822-2.962,5.369-4.452,6.863
				c-1.874,1.879-4.283,3.127-6.45,4.668c-3.417,2.429-6.28,5.657-8.087,9.416s-2.528,8.052-1.848,12.16
				c18.684,10.191,40.965,14.103,62.024,10.712c1.652-6.048,0.829-12.601-1.635-18.372c-0.56-1.311-1.199-2.695-0.958-4.098
				c0.264-1.538,1.508-2.689,2.51-3.893c2.748-3.301,3.975-7.795,3.28-12.016c-0.695-4.221-3.299-8.098-6.964-10.366
				c-1.66-1.027-3.505-1.729-5.38-2.285C339.209,96.664,331.486,95.824,324.866,98.188z"/>
			<g>
				<path style="fill:#FF8B9B;" d="M338.21,141.61v10.31c0,0,1.14,7.288-9.268,8.119c-10.408,0.832-15.193-12.694-15.193-12.694
					l3.327-20.719l12.854,9.112L338.21,141.61z"/>
				<path style="fill:#351E3B;" d="M338.21,141.61v6.482c-4.856-0.269-9.601-2.238-13.209-5.492
					c-3.877-3.486-6.409-8.415-6.984-13.588c2.911,3.155,6.384,4.464,10.347,6.115c0.514,0.22,1.04,0.428,1.566,0.612L338.21,141.61
					z"/>
			</g>
			<g>
				<path style="fill:#FF8B9B;" d="M352.747,109.754c4.605,9.209,0.872,20.408-8.338,25.013c-9.209,4.605-20.408,0.872-25.013-8.338
					c-4.605-9.209-0.872-20.408,8.338-25.013C336.944,96.811,348.142,100.544,352.747,109.754z"/>
				<path style="fill:#FF8B9B;" d="M352.076,127.303c0,0-1.561,14.365-14.911,15.613c-8.718,0.816-19.205-6.011-20.063-14.833
					c-0.859-8.822,0.312-14.365,1.717-17.175c1.405-2.811,27.558,1.717,27.558,1.717L352.076,127.303z"/>
			</g>
			<g>
				<g>
					<path style="opacity:0.23;fill:#D9607B;" d="M337.283,129.369c0.015-0.341,0.249-0.635,0.512-0.854
						c0.392-0.326,0.898-0.549,1.405-0.497c0.508,0.052,0.997,0.431,1.07,0.936c0.284-0.108,0.597-0.18,0.89-0.101
						c0.293,0.08,0.551,0.351,0.528,0.653c-0.228,0.204-0.466,0.566-0.755,0.67c-0.212,0.076-0.441,0.09-0.666,0.092
						C339.234,130.275,338.193,129.861,337.283,129.369z"/>
					<g>
						<g>
							<g>
								<g>
									<g>
										
											<path style="fill:none;stroke:#351E3B;stroke-width:0.4571;stroke-linecap:round;stroke-linejoin:round;stroke-miterlimit:10;" d="
											M340.4,130.215c0.879-0.12,1.672-0.758,1.986-1.596c0.372-0.996-0.109-2.302-0.668-3.211"/>
										
											<path style="fill:none;stroke:#351E3B;stroke-width:0.4571;stroke-linecap:round;stroke-linejoin:round;stroke-miterlimit:10;" d="
											M338.558,129.662c-0.047-0.298-0.246-0.579-0.531-0.67c-0.285-0.091-0.639,0.051-0.744,0.334"/>
									</g>
								</g>
							</g>
						</g>
					</g>
					<path style="fill:#351E3B;" d="M345.074,125.766c-0.269,0.969,0.299,1.972,1.268,2.241c0.969,0.269,1.972-0.299,2.241-1.268
						c0.269-0.969-0.299-1.972-1.268-2.241C346.346,124.229,345.343,124.797,345.074,125.766z"/>
					<path style="fill:#351E3B;" d="M332.182,121.937c-0.269,0.969,0.299,1.972,1.268,2.241c0.969,0.269,1.972-0.299,2.241-1.268
						c0.269-0.969-0.299-1.972-1.268-2.241C333.454,120.4,332.451,120.968,332.182,121.937z"/>
					<path style="fill:#492A51;" d="M350.829,122.913c-0.125,0.253-0.404,0.404-0.684,0.443c-0.28,0.039-0.564-0.016-0.839-0.08
						c-0.84-0.197-1.665-0.486-2.404-0.932c-0.478-0.289-0.962-0.735-0.932-1.294c0.063-1.17,1.657-1.439,2.551-1.22
						C349.704,120.12,351.525,121.506,350.829,122.913z"/>
					<path style="fill:#492A51;" d="M332.221,117.819c-0.023,0.282,0.139,0.554,0.358,0.732c0.22,0.178,0.492,0.277,0.761,0.364
						c0.822,0.264,1.679,0.442,2.543,0.439c0.56-0.002,1.204-0.135,1.467-0.629c0.549-1.036-0.679-2.089-1.56-2.362
						C334.626,116.002,332.349,116.253,332.221,117.819z"/>
				</g>
				
					<path style="fill:none;stroke:#351E3B;stroke-width:0.4571;stroke-linecap:round;stroke-linejoin:round;stroke-miterlimit:10;" d="
					M337.795,132.719c-1.347,0.228-2.794-0.649-3.217-1.948"/>
			</g>
			<path style="fill:#492A51;" d="M313.87,114.124c6.283,3.491,14.097,2.981,20.921,0.736c3.543-1.165,6.974-2.785,9.891-5.117
				c2.918-2.331,5.308-5.409,6.479-8.964c-1.943-2.676-6.189-5.226-9.428-5.849c-8.104-1.556-17.123-0.552-23.382,5.334
				c-0.566,0.532-1.118,1.087-1.657,1.647c-1.494,1.551-2.576,3.475-3.392,5.455c-0.416,1.011-0.766,2.049-1.074,3.098
				c-0.137,0.466-0.443,2.859-0.8,3.061C312.218,113.078,313.077,113.683,313.87,114.124z"/>
			<g>
				<path style="fill:#FF8B9B;" d="M320.435,116.962c-0.908-2.353-3.412-3.95-5.876-3.745c-3.198,0.265-5.733,3.418-5.919,6.697
					c-0.165,2.899,1.314,5.837,3.717,7.382c2.402,1.545,5.63,1.634,8.111,0.224c-0.034-1.168,0.089-2.398,0.194-3.562
					C320.862,121.729,321.238,119.044,320.435,116.962z"/>
				
					<path style="fill:none;stroke:#351E3B;stroke-width:0.4571;stroke-linecap:round;stroke-linejoin:round;stroke-miterlimit:10;" d="
					M314.296,117.132c1.195,1.489,1.883,3.379,1.924,5.288"/>
			</g>
			<g>
				<path style="fill:#AA6EE7;" d="M362.512,414.744h-28.73l-3.021-123.346l-25.342,123.248l-27.274-1.248
					c0,0,0.061-0.844,0.159-2.397c0.856-12.255,4.721-68.54,6.641-100.646c0.306-5.161,0.575-9.699,0.758-13.331
					c1.223-23.556,9.014-59.832,11.423-79.536c0-0.012,0.012-0.012,0.012-0.024c0.122-0.954,0.22-1.871,0.318-2.752
					c7.718-7.803,10.983-19.239,9.723-32.289c-0.991-10.384-4.317-24.094-5.663-29.354c2.152-1.492,4.244-2.801,6.017-3.865
					l5.736,18.138c1.981,6.262,7.607,10.665,14.163,11.069l1.394,0.086c9.442,0.599,17.319-7.155,16.866-16.609l-0.367-7.681
					c2.153,1.174,4.586,2.678,7.069,4.574c0.551,5.54,1.835,18.468,2.568,23.324c0.391,2.593,3.155,8.977,6.25,15.533
					c-0.012,5.528,0.037,11.13,0.306,16.316c1.26,24.119,0,48.715,0,48.715L362.512,414.744z"/>
				<g>
					
						<path style="fill:none;stroke:#351E3B;stroke-width:0.4571;stroke-linecap:round;stroke-linejoin:round;stroke-miterlimit:10;" d="
						M299.563,213.314c0.231,19.452-3.73,38.672-6.688,57.899c-7.231,47.014-8.502,94.715-9.76,142.266"/>
					
						<polyline style="fill:none;stroke:#351E3B;stroke-width:0.4571;stroke-linecap:round;stroke-linejoin:round;stroke-miterlimit:10;" points="
						338.102,272.041 330.295,293.276 305.417,414.645 					"/>
					
						<line style="fill:none;stroke:#351E3B;stroke-width:0.4571;stroke-linecap:round;stroke-linejoin:round;stroke-miterlimit:10;" x1="333.417" y1="284.532" x2="338.414" y2="414.437"/>
				</g>
			</g>
			<path style="fill:#FFA7DA;" d="M288.725,164.616c0,0-9.122,8.747-12.869,30.815c-3.747,22.067-6.037,31.644-3.331,38.93
				s21.443,18.112,21.443,18.112s-1.249-4.059,1.978-10.201c3.227-6.141,6.349-6.454,6.349-6.454l-9.16-14.156l6.454-26.439
				C299.588,195.222,297.43,165.028,288.725,164.616z"/>
			<g>
				<polygon style="fill:#FFFFFF;" points="315.202,162.954 302.711,263.506 375.574,269.126 390.563,172.114 				"/>
				<path style="fill:#FF8B9B;" d="M293.655,252.056c0,0-0.937-8.327,3.747-13.115c4.684-4.788,9.576-10.305,9.576-10.305
					l-0.416,6.037c0,0,15.093-5.205,16.03-4.06c0.937,1.145-11.45,7.911-11.45,7.911s11.138-2.498,11.658-0.729
					c0.52,1.77-2.915,3.123-2.915,3.123s3.539-0.416,3.643,1.249c0.104,1.665-6.454,4.163-6.454,4.163s3.019,1.353-2.498,2.915
					C309.06,250.807,300.317,253.929,293.655,252.056z"/>
				<path style="fill:#FF8B9B;" d="M388.481,184.293c0,0-9.889-7.807-10.93-6.245c-1.041,1.561,7.182,7.494,7.182,7.494
					s-8.952-5.204-9.576-3.747c-0.625,1.457,8.223,8.327,8.223,8.327s-8.639-3.643-9.056-2.394
					c-0.416,1.249,7.703,5.725,7.703,5.725s-5.829-1.666-6.454-0.833c-0.625,0.833,10.93,6.87,10.93,6.87s2.602-2.915,3.435-6.87
					C390.771,188.665,388.481,184.293,388.481,184.293z"/>
			</g>
			<path style="fill:#492A51;" d="M319.985,114.969c0.058,1.67-0.043,3.346-0.303,4.997c2.318-0.44,4.257-2.247,5.71-4.106
				c0.375-0.479,0.751-1.039,0.672-1.642c-0.055-0.421-0.328-0.783-0.644-1.066c-0.837-0.749-2.047-1.058-3.14-0.803
				C321.187,112.605,319.946,113.846,319.985,114.969z"/>
		</g>
	</g>
	<g>
		<rect x="400.362" y="34.075" style="fill:#FFFFFF;" width="101.914" height="117.169"/>
		<rect x="445.235" y="24.103" style="fill:#FFB18A;" width="10.355" height="21.861"/>
		<g>
			<circle style="fill:#FFD28A;" cx="451.222" cy="81.933" r="20.778"/>
			<circle style="fill:#FFA7DA;" cx="437.631" cy="101.468" r="20.778"/>
			<circle style="fill:#759FFF;" cx="465.495" cy="101.276" r="20.778"/>
		</g>
	</g>
	<g>
		<g>
			<g>
				<rect x="541.597" y="34.938" style="fill:#FFFFFF;" width="101.914" height="117.169"/>
				<rect x="586.47" y="24.966" style="fill:#FFB18A;" width="10.355" height="21.861"/>
			</g>
		</g>
		<g>
			<path style="fill:#9AD69D;" d="M593.347,94.737l-16.484-28.562c-10.011,5.735-16.761,16.517-16.761,28.881h33.063L593.347,94.737
				z"/>
			<path style="fill:#FFD28A;" d="M609.664,66.049c-4.816-2.711-10.371-4.264-16.291-4.264c-6.011,0-11.644,1.602-16.51,4.39
				l16.484,28.562L609.664,66.049z"/>
			<path style="fill:#FFB18A;" d="M593.531,95.056h33.114c0-12.455-6.848-23.305-16.981-29.007l-16.317,28.688L593.531,95.056z"/>
			<polygon style="fill:#492A51;" points="593.165,95.056 593.531,95.056 593.347,94.737 			"/>
			<path style="fill:#FF7A7A;" d="M626.645,95.056h-33.114l16.589,28.745C620.001,118.032,626.645,107.323,626.645,95.056z"/>
			<path style="fill:#7581FF;" d="M560.102,95.056c0,12.326,6.708,23.078,16.667,28.827l16.396-28.827H560.102z"/>
			<path style="fill:#AA6EE7;" d="M593.165,95.056l-16.396,28.827c4.888,2.822,10.555,4.444,16.604,4.444
				c6.108,0,11.827-1.654,16.747-4.526l-16.589-28.745H593.165z"/>
		</g>
	</g>
	<g>
		
			<linearGradient id="SVGID_00000083793639929002917710000016480075392057383609_" gradientUnits="userSpaceOnUse" x1="191.7958" y1="235.0116" x2="131.3866" y2="57.0496">
			<stop  offset="0.0104" style="stop-color:#FFCABD;stop-opacity:0"/>
			<stop  offset="1" style="stop-color:#FFCABD"/>
		</linearGradient>
		<path style="opacity:0.27;fill:url(#SVGID_00000083793639929002917710000016480075392057383609_);" d="M39.045,74.817
			l19.864,50.223l-19.864,8.221l73.743,90.283h191.023l-31.338-90.283v-8.825H258.64l-19.048-51.098
			C239.592,73.339,40.95,74.817,39.045,74.817z"/>
		<g>
			<g>
				<g>
					<path style="opacity:0.65;fill:#FF8B9B;" d="M64.342,133.259l-1.262,2.1l-1.011,1.685c-0.778,1.305-2.186,2.1-3.699,2.1h-5.703
						c-1.512,0-2.921-0.795-3.707-2.1l-1.011-1.685l-1.253-2.1H64.342z"/>
					<polygon style="fill:#FF8B9B;" points="64.342,133.259 63.081,135.359 47.95,135.359 46.697,133.259 					"/>
				</g>
				<g>
					<path style="opacity:0.65;fill:#FF8B9B;" d="M266.53,133.259l-1.262,2.1l-1.011,1.685c-0.778,1.305-2.186,2.1-3.699,2.1h-5.703
						c-1.512,0-2.921-0.795-3.707-2.1l-1.011-1.685l-1.253-2.1H266.53z"/>
					<polygon style="fill:#FF8B9B;" points="266.53,133.259 265.268,135.359 250.137,135.359 248.884,133.259 					"/>
				</g>
				<rect x="39.045" y="124.437" style="opacity:0.65;fill:#FF8B9B;" width="233.428" height="8.825"/>
			</g>
			<g>
				<g>
					<path style="opacity:0.65;fill:#FF8B9B;" d="M64.342,74.815l-1.262,2.1L62.07,78.6c-0.778,1.305-2.186,2.1-3.699,2.1h-5.703
						c-1.512,0-2.921-0.795-3.707-2.1l-1.011-1.685l-1.253-2.1H64.342z"/>
					<polygon style="fill:#FF8B9B;" points="64.342,74.815 63.081,76.914 47.95,76.914 46.697,74.815 					"/>
				</g>
				<g>
					<path style="opacity:0.65;fill:#FF8B9B;" d="M266.53,74.815l-1.262,2.1l-1.011,1.685c-0.778,1.305-2.186,2.1-3.699,2.1h-5.703
						c-1.512,0-2.921-0.795-3.707-2.1l-1.011-1.685l-1.253-2.1H266.53z"/>
					<polygon style="fill:#FF8B9B;" points="266.53,74.815 265.268,76.914 250.137,76.914 248.884,74.815 					"/>
				</g>
				<rect x="39.045" y="65.992" style="opacity:0.65;fill:#FF8B9B;" width="233.428" height="8.825"/>
			</g>
			<g>
				<g>
					<g>
						<rect x="216.422" y="34.064" style="fill:#FFF3EA;" width="23.491" height="31.387"/>
						<rect x="216.422" y="34.064" style="fill:#7581FF;" width="23.491" height="18.771"/>
						<rect x="216.422" y="34.064" style="opacity:0.12;fill:#492A51;" width="7.594" height="31.387"/>
					</g>
					<g>
						<rect x="227.331" y="58.971" style="fill:#FFB18A;" width="2.182" height="2.054"/>
						<rect x="230.141" y="58.971" style="fill:#FF8B9B;" width="2.182" height="2.054"/>
						<rect x="232.951" y="58.971" style="fill:#759FFF;" width="2.182" height="2.054"/>
						<rect x="236" y="58.971" style="fill:#492A51;" width="2.182" height="2.054"/>
					</g>
				</g>
				<g>
					<g>
						<rect x="197.769" y="34.064" style="fill:#FFF3EA;" width="23.491" height="31.387"/>
						<rect x="197.769" y="34.064" style="fill:#FFB18A;" width="23.491" height="18.771"/>
						<rect x="197.769" y="34.064" style="opacity:0.12;fill:#492A51;" width="7.594" height="31.387"/>
					</g>
					<g>
						<rect x="208.678" y="58.971" style="fill:#FFB18A;" width="2.182" height="2.054"/>
						<rect x="211.488" y="58.971" style="fill:#FF8B9B;" width="2.182" height="2.054"/>
						<rect x="214.298" y="58.971" style="fill:#759FFF;" width="2.182" height="2.054"/>
						<rect x="217.347" y="58.971" style="fill:#492A51;" width="2.182" height="2.054"/>
					</g>
				</g>
				<g>
					<g>
						<rect x="176.784" y="34.064" style="fill:#FFF3EA;" width="23.491" height="31.387"/>
						<rect x="176.784" y="34.064" style="fill:#FF8B9B;" width="23.491" height="18.771"/>
						<rect x="176.784" y="34.064" style="opacity:0.12;fill:#492A51;" width="7.594" height="31.387"/>
					</g>
					<g>
						<rect x="187.693" y="58.971" style="fill:#FFB18A;" width="2.182" height="2.054"/>
						<rect x="190.503" y="58.971" style="fill:#FF8B9B;" width="2.182" height="2.054"/>
						<rect x="193.313" y="58.971" style="fill:#759FFF;" width="2.182" height="2.054"/>
						<rect x="196.362" y="58.971" style="fill:#492A51;" width="2.182" height="2.054"/>
					</g>
				</g>
				<g>
					<g>
						<rect x="157.054" y="34.064" style="fill:#FFF3EA;" width="23.491" height="31.387"/>
						<rect x="157.054" y="34.064" style="fill:#492A51;" width="23.491" height="18.771"/>
						<rect x="157.054" y="34.064" style="opacity:0.12;fill:#492A51;" width="7.594" height="31.387"/>
					</g>
					<g>
						<rect x="167.964" y="58.971" style="fill:#FFB18A;" width="2.182" height="2.054"/>
						<rect x="170.773" y="58.971" style="fill:#FF8B9B;" width="2.182" height="2.054"/>
						<rect x="173.583" y="58.971" style="fill:#759FFF;" width="2.182" height="2.054"/>
						<rect x="176.632" y="58.971" style="fill:#492A51;" width="2.182" height="2.054"/>
					</g>
				</g>
			</g>
			<g>
				<g>
					<g>
						<rect x="119.55" y="34.064" style="fill:#FFF3EA;" width="23.491" height="31.387"/>
						<rect x="119.55" y="34.064" style="fill:#7581FF;" width="23.491" height="18.771"/>
						<rect x="119.55" y="34.064" style="opacity:0.12;fill:#492A51;" width="7.594" height="31.387"/>
					</g>
					<g>
						<rect x="130.459" y="58.971" style="fill:#FFB18A;" width="2.182" height="2.054"/>
						<rect x="133.269" y="58.971" style="fill:#FF8B9B;" width="2.182" height="2.054"/>
						<rect x="136.079" y="58.971" style="fill:#759FFF;" width="2.182" height="2.054"/>
						<rect x="139.128" y="58.971" style="fill:#492A51;" width="2.182" height="2.054"/>
					</g>
				</g>
				<g>
					<g>
						<rect x="100.897" y="34.064" style="fill:#FFF3EA;" width="23.491" height="31.387"/>
						<rect x="100.897" y="34.064" style="fill:#FFB18A;" width="23.491" height="18.771"/>
						<rect x="100.897" y="34.064" style="opacity:0.12;fill:#492A51;" width="7.594" height="31.387"/>
					</g>
					<g>
						<rect x="111.806" y="58.971" style="fill:#FFB18A;" width="2.182" height="2.054"/>
						<rect x="114.616" y="58.971" style="fill:#FF8B9B;" width="2.182" height="2.054"/>
						<rect x="117.426" y="58.971" style="fill:#759FFF;" width="2.182" height="2.054"/>
						<rect x="120.475" y="58.971" style="fill:#492A51;" width="2.182" height="2.054"/>
					</g>
				</g>
				<g>
					<g>
						<rect x="79.912" y="34.064" style="fill:#FFF3EA;" width="23.491" height="31.387"/>
						<rect x="79.912" y="34.064" style="fill:#FF8B9B;" width="23.491" height="18.771"/>
						<rect x="79.912" y="34.064" style="opacity:0.12;fill:#492A51;" width="7.594" height="31.387"/>
					</g>
					<g>
						<rect x="90.821" y="58.971" style="fill:#FFB18A;" width="2.182" height="2.054"/>
						<rect x="93.631" y="58.971" style="fill:#FF8B9B;" width="2.182" height="2.054"/>
						<rect x="96.441" y="58.971" style="fill:#759FFF;" width="2.182" height="2.054"/>
						<rect x="99.49" y="58.971" style="fill:#492A51;" width="2.182" height="2.054"/>
					</g>
				</g>
				<g>
					<g>
						<rect x="60.182" y="34.064" style="fill:#FFF3EA;" width="23.491" height="31.387"/>
						<rect x="60.182" y="34.064" style="fill:#492A51;" width="23.491" height="18.771"/>
						<rect x="60.182" y="34.064" style="opacity:0.12;fill:#492A51;" width="7.594" height="31.387"/>
					</g>
					<g>
						<rect x="71.091" y="58.971" style="fill:#FFB18A;" width="2.182" height="2.054"/>
						<rect x="73.901" y="58.971" style="fill:#FF8B9B;" width="2.182" height="2.054"/>
						<rect x="76.711" y="58.971" style="fill:#759FFF;" width="2.182" height="2.054"/>
						<rect x="79.76" y="58.971" style="fill:#492A51;" width="2.182" height="2.054"/>
					</g>
				</g>
			</g>
			<g>
				<path style="fill:#FFB18A;" d="M228.613,110.784v13.716h-17.596v-13.716c0-5.606,1.204-11.159,3.517-16.264l1.29-2.856v-5.446
					h7.983v5.446l1.3,2.856c1.204,2.664,2.11,5.457,2.696,8.302C228.336,105.434,228.613,108.109,228.613,110.784z"/>
				<polygon style="fill:#351E3B;" points="223.212,86.207 215.814,87.368 215.814,86.207 				"/>
				<g>
					<rect x="215.453" y="84.808" style="fill:#FFF3EA;" width="8.802" height="1.434"/>
					<path style="fill:#FFFFFF;" d="M224.252,84.802c0,0.106-1.98,0.193-4.422,0.193c-2.442,0-4.422-0.086-4.422-0.193
						c0-0.106,1.98-0.193,4.422-0.193C222.272,84.609,224.252,84.695,224.252,84.802z"/>
				</g>
				<path style="fill:#FFF3EA;" d="M228.613,110.784v10.359h-10.061v-18.321h9.251C228.336,105.434,228.613,108.109,228.613,110.784
					z"/>
			</g>
			<g>
				<path style="fill:#7581FF;" d="M215.143,110.784v13.716h-17.596v-13.716c0-5.606,1.204-11.159,3.517-16.264l1.29-2.856v-5.446
					h7.983v5.446l1.3,2.856c1.204,2.664,2.11,5.457,2.697,8.302C214.866,105.434,215.143,108.109,215.143,110.784z"/>
				<polygon style="fill:#351E3B;" points="209.742,86.207 202.344,87.368 202.344,86.207 				"/>
				<g>
					<rect x="201.984" y="84.808" style="fill:#FFF3EA;" width="8.802" height="1.434"/>
					<path style="fill:#FFFFFF;" d="M210.782,84.802c0,0.106-1.98,0.193-4.422,0.193c-2.442,0-4.422-0.086-4.422-0.193
						c0-0.106,1.98-0.193,4.422-0.193C208.803,84.609,210.782,84.695,210.782,84.802z"/>
				</g>
				<path style="fill:#FFF3EA;" d="M215.143,110.784v10.359h-10.061v-18.321h9.251C214.866,105.434,215.143,108.109,215.143,110.784
					z"/>
			</g>
			<g>
				<path style="fill:#FF8B9B;" d="M199.905,110.784v13.716h-17.596v-13.716c0-5.606,1.204-11.159,3.517-16.264l1.29-2.856v-5.446
					h7.983v5.446l1.3,2.856c1.204,2.664,2.11,5.457,2.696,8.302C199.628,105.434,199.905,108.109,199.905,110.784z"/>
				<polygon style="fill:#351E3B;" points="194.504,86.207 187.106,87.368 187.106,86.207 				"/>
				<g>
					<rect x="186.745" y="84.808" style="fill:#FFF3EA;" width="8.802" height="1.434"/>
					<path style="fill:#FFFFFF;" d="M195.544,84.802c0,0.106-1.98,0.193-4.422,0.193c-2.442,0-4.422-0.086-4.422-0.193
						c0-0.106,1.98-0.193,4.422-0.193C193.564,84.609,195.544,84.695,195.544,84.802z"/>
				</g>
				<path style="fill:#FFF3EA;" d="M199.905,110.784v10.359h-10.061v-18.321h9.251C199.628,105.434,199.905,108.109,199.905,110.784
					z"/>
			</g>
			<g>
				<path style="fill:#492A51;" d="M185.891,110.784v13.716h-17.596v-13.716c0-5.606,1.204-11.159,3.517-16.264l1.29-2.856v-5.446
					h7.983v5.446l1.3,2.856c1.204,2.664,2.11,5.457,2.696,8.302C185.614,105.434,185.891,108.109,185.891,110.784z"/>
				<polygon style="fill:#351E3B;" points="180.49,86.207 173.092,87.368 173.092,86.207 				"/>
				<g>
					<rect x="172.731" y="84.808" style="fill:#FFF3EA;" width="8.802" height="1.434"/>
					<path style="fill:#FFFFFF;" d="M181.53,84.802c0,0.106-1.98,0.193-4.422,0.193c-2.442,0-4.422-0.086-4.422-0.193
						c0-0.106,1.98-0.193,4.422-0.193C179.551,84.609,181.53,84.695,181.53,84.802z"/>
				</g>
				<path style="fill:#FFF3EA;" d="M185.891,110.784v10.359H175.83v-18.321h9.251C185.614,105.434,185.891,108.109,185.891,110.784z
					"/>
			</g>
			<g>
				<path style="fill:#FFB18A;" d="M171.469,110.784v13.716h-17.596v-13.716c0-5.606,1.204-11.159,3.517-16.264l1.29-2.856v-5.446
					h7.983v5.446l1.3,2.856c1.204,2.664,2.11,5.457,2.696,8.302C171.192,105.434,171.469,108.109,171.469,110.784z"/>
				<polygon style="fill:#351E3B;" points="166.068,86.207 158.67,87.368 158.67,86.207 				"/>
				<g>
					<rect x="158.309" y="84.808" style="fill:#FFF3EA;" width="8.802" height="1.434"/>
					<path style="fill:#FFFFFF;" d="M167.108,84.802c0,0.106-1.98,0.193-4.422,0.193c-2.442,0-4.422-0.086-4.422-0.193
						c0-0.106,1.98-0.193,4.422-0.193C165.129,84.609,167.108,84.695,167.108,84.802z"/>
				</g>
				<path style="fill:#FFF3EA;" d="M171.469,110.784v10.359h-10.061v-18.321h9.251C171.192,105.434,171.469,108.109,171.469,110.784
					z"/>
			</g>
			<g>
				<path style="fill:#7581FF;" d="M157.999,110.784v13.716h-17.596v-13.716c0-5.606,1.204-11.159,3.517-16.264l1.29-2.856v-5.446
					h7.983v5.446l1.3,2.856c1.204,2.664,2.11,5.457,2.696,8.302C157.722,105.434,157.999,108.109,157.999,110.784z"/>
				<polygon style="fill:#351E3B;" points="152.598,86.207 145.2,87.368 145.2,86.207 				"/>
				<g>
					<rect x="144.84" y="84.808" style="fill:#FFF3EA;" width="8.802" height="1.434"/>
					<path style="fill:#FFFFFF;" d="M153.639,84.802c0,0.106-1.98,0.193-4.422,0.193c-2.442,0-4.422-0.086-4.422-0.193
						c0-0.106,1.98-0.193,4.422-0.193C151.659,84.609,153.639,84.695,153.639,84.802z"/>
				</g>
				<path style="fill:#FFF3EA;" d="M157.999,110.784v10.359h-10.061v-18.321h9.251C157.722,105.434,157.999,108.109,157.999,110.784
					z"/>
			</g>
			<g>
				<path style="fill:#FF8B9B;" d="M142.761,110.784v13.716h-17.596v-13.716c0-5.606,1.204-11.159,3.517-16.264l1.29-2.856v-5.446
					h7.983v5.446l1.3,2.856c1.204,2.664,2.11,5.457,2.696,8.302C142.484,105.434,142.761,108.109,142.761,110.784z"/>
				<polygon style="fill:#351E3B;" points="137.36,86.207 129.962,87.368 129.962,86.207 				"/>
				<g>
					<rect x="129.602" y="84.808" style="fill:#FFF3EA;" width="8.802" height="1.434"/>
					<path style="fill:#FFFFFF;" d="M138.4,84.802c0,0.106-1.98,0.193-4.422,0.193c-2.442,0-4.422-0.086-4.422-0.193
						c0-0.106,1.98-0.193,4.422-0.193C136.421,84.609,138.4,84.695,138.4,84.802z"/>
				</g>
				<path style="fill:#FFF3EA;" d="M142.761,110.784v10.359H132.7v-18.321h9.251C142.484,105.434,142.761,108.109,142.761,110.784z"
					/>
			</g>
			<g>
				<path style="fill:#492A51;" d="M128.747,110.784v13.716h-17.596v-13.716c0-5.606,1.204-11.159,3.517-16.264l1.29-2.856v-5.446
					h7.983v5.446l1.3,2.856c1.204,2.664,2.11,5.457,2.696,8.302C128.47,105.434,128.747,108.109,128.747,110.784z"/>
				<polygon style="fill:#351E3B;" points="123.346,86.207 115.948,87.368 115.948,86.207 				"/>
				<g>
					<rect x="115.588" y="84.808" style="fill:#FFF3EA;" width="8.802" height="1.434"/>
					<path style="fill:#FFFFFF;" d="M124.387,84.802c0,0.106-1.98,0.193-4.422,0.193c-2.442,0-4.422-0.086-4.422-0.193
						c0-0.106,1.98-0.193,4.422-0.193C122.407,84.609,124.387,84.695,124.387,84.802z"/>
				</g>
				<path style="fill:#FFF3EA;" d="M128.747,110.784v10.359h-10.061v-18.321h9.251C128.47,105.434,128.747,108.109,128.747,110.784z
					"/>
			</g>
			<g>
				<g>
					<rect x="74.994" y="93.156" style="fill:#FFF3EA;" width="23.491" height="31.387"/>
					<rect x="74.994" y="93.156" style="fill:#7581FF;" width="23.491" height="18.771"/>
					<rect x="74.994" y="93.156" style="opacity:0.12;fill:#492A51;" width="7.594" height="31.387"/>
				</g>
				<g>
					<rect x="85.903" y="118.063" style="fill:#FFB18A;" width="2.182" height="2.054"/>
					<rect x="88.713" y="118.063" style="fill:#FF8B9B;" width="2.182" height="2.054"/>
					<rect x="91.523" y="118.063" style="fill:#759FFF;" width="2.182" height="2.054"/>
					<rect x="94.572" y="118.063" style="fill:#492A51;" width="2.182" height="2.054"/>
				</g>
			</g>
			<g>
				<g>
					<rect x="56.341" y="93.156" style="fill:#FFF3EA;" width="23.491" height="31.387"/>
					<rect x="56.341" y="93.156" style="fill:#FFB18A;" width="23.491" height="18.771"/>
					<rect x="56.341" y="93.156" style="opacity:0.12;fill:#492A51;" width="7.594" height="31.387"/>
				</g>
				<g>
					<rect x="67.25" y="118.063" style="fill:#FFB18A;" width="2.182" height="2.054"/>
					<rect x="70.06" y="118.063" style="fill:#FF8B9B;" width="2.182" height="2.054"/>
					<rect x="72.87" y="118.063" style="fill:#759FFF;" width="2.182" height="2.054"/>
					<rect x="75.919" y="118.063" style="fill:#492A51;" width="2.182" height="2.054"/>
				</g>
			</g>
		</g>
	</g>
	<g>
		<defs>
			<polygon id="SVGID_00000004529041930889080370000001755128172818631614_" points="191.149,499.511 0,499.511 0,430.064 
				188.766,430.064 			"/>
		</defs>
		<clipPath id="SVGID_00000041285203195980576820000006674737425868118432_">
			<use xlink:href="#SVGID_00000004529041930889080370000001755128172818631614_"  style="overflow:visible;"/>
		</clipPath>
		
			<ellipse style="opacity:0.51;clip-path:url(#SVGID_00000041285203195980576820000006674737425868118432_);fill:#FAE3DB;" cx="87.362" cy="487.596" rx="91.532" ry="17.617"/>
		<g style="clip-path:url(#SVGID_00000041285203195980576820000006674737425868118432_);">
			<g>
				<path style="fill:#FFF3EA;" d="M139.451,454.289L0.173,447.198c0,0-3.207,3.443-3.568,11.289
					c-0.361,7.845,2.119,12.417,2.119,12.417l140.877,8.619L139.451,454.289z"/>
				<path style="opacity:0.17;fill:#FFCABD;" d="M139.451,454.289L0.173,447.198c0,0-3.207,3.443-3.568,11.289
					c-0.361,7.845,2.119,12.417,2.119,12.417l140.877,8.619L139.451,454.289z"/>
				<g>
					<path style="fill:#FFB18A;" d="M137.881,476.655c-0.579-2.327-0.916-5.878-0.863-9.861c0.027-1.884,0.134-3.675,0.306-5.284
						c0.467-4.316,1.42-7.319,2.483-7.302c1.467,0.02,2.57,5.685,2.486,12.659c-0.093,6.958-1.347,12.599-2.801,12.582
						C138.871,479.447,138.304,478.393,137.881,476.655z"/>
					<path style="opacity:0.23;fill:#FFB18A;" d="M137.881,476.655c-0.579-2.327-0.916-5.878-0.863-9.861
						c0.027-1.884,0.134-3.675,0.306-5.284l4.033-0.675C141.847,467.567,139.37,473.668,137.881,476.655z"/>
				</g>
			</g>
			<g>
				<path style="fill:#FFF3EA;" d="M130.449,442.536l-139.38-4.695c0,0-3.148,3.498-3.373,11.348
					c-0.226,7.85,2.332,12.379,2.332,12.379l141.004,6.196L130.449,442.536z"/>
				<path style="opacity:0.17;fill:#FFCABD;" d="M130.449,442.536l-139.38-4.695c0,0-3.148,3.498-3.373,11.348
					c-0.226,7.85,2.332,12.379,2.332,12.379l141.004,6.196L130.449,442.536z"/>
				<g>
					<path style="fill:#FFB18A;" d="M129.263,464.925c-0.619-2.317-1.017-5.861-1.032-9.845c-0.005-1.884,0.071-3.677,0.215-5.289
						c0.393-4.323,1.295-7.342,2.357-7.343c1.467-0.005,2.668,5.64,2.703,12.615c0.027,6.959-1.13,12.62-2.584,12.629
						C130.301,467.699,129.716,466.656,129.263,464.925z"/>
					<path style="opacity:0.23;fill:#FFB18A;" d="M129.263,464.925c-0.619-2.317-1.017-5.861-1.032-9.845
						c-0.005-1.884,0.071-3.677,0.215-5.289l4.021-0.744C133.072,455.771,130.701,461.913,129.263,464.925z"/>
				</g>
			</g>
			<g>
				<path style="fill:#FFF3EA;" d="M126.133,467.988l-139.278-7.091c0,0-3.207,3.443-3.568,11.289
					c-0.361,7.845,2.119,12.417,2.119,12.417l140.877,8.619L126.133,467.988z"/>
				<g>
					<path style="fill:#FFB18A;" d="M124.563,490.353c-0.579-2.327-0.916-5.878-0.863-9.861c0.027-1.884,0.134-3.675,0.306-5.284
						c0.467-4.316,1.421-7.319,2.483-7.302c1.467,0.02,2.57,5.685,2.486,12.659c-0.093,6.958-1.347,12.599-2.801,12.582
						C125.553,493.146,124.986,492.092,124.563,490.353z"/>
					<path style="opacity:0.23;fill:#FFB18A;" d="M124.563,490.353c-0.579-2.327-0.916-5.878-0.863-9.861
						c0.027-1.884,0.134-3.675,0.306-5.284l4.033-0.675C128.529,481.266,126.052,487.367,124.563,490.353z"/>
				</g>
			</g>
		</g>
	</g>
</g>
</svg>
